<svg xmlns="http://www.w3.org/2000/svg" width="119.38" height="130" viewBox="0 0 119.38 130">
  <g id="icon-medal" transform="translate(-20.75)">
    <circle id="椭圆_38" data-name="椭圆 38" cx="51.616" cy="51.616" r="51.616" transform="translate(28.709 0)" fill="#ffd15c"/>
    <g id="组_444" data-name="组 444" transform="translate(20.75 81.659)">
      <path id="路径_455" data-name="路径 455" d="M38.51,319.7,20.75,350.485l20.728-1.1,9.417,18.5L67.325,339.4A51.564,51.564,0,0,1,38.51,319.7Z" transform="translate(-20.75 -319.546)" fill="#3294cc"/>
      <path id="路径_456" data-name="路径 456" d="M333.788,319.1a51.581,51.581,0,0,1-28.738,19.807l16.48,28.533,9.417-18.5,20.728,1.1Z" transform="translate(-232.296 -319.1)" fill="#3294cc"/>
    </g>
    <circle id="椭圆_39" data-name="椭圆 39" cx="37.413" cy="37.413" r="37.413" transform="translate(42.911 14.203)" fill="#f8b64c"/>
    <path id="路径_457" data-name="路径 457" d="M202.926,124.754a1.954,1.954,0,0,0-1.075-3.327l-14.766-2.15a1.925,1.925,0,0,1-1.459-1.075l-6.6-13.384a1.951,1.951,0,0,0-3.506,0L168.942,118.2a2.033,2.033,0,0,1-1.459,1.075l-14.766,2.15a1.954,1.954,0,0,0-1.075,3.327l10.671,10.415a1.972,1.972,0,0,1,.563,1.715l-2.508,14.689a1.949,1.949,0,0,0,2.841,2.047l13.2-6.935a1.907,1.907,0,0,1,1.817,0l13.2,6.935a1.96,1.96,0,0,0,2.841-2.047l-2.533-14.689a1.925,1.925,0,0,1,.563-1.715Z" transform="translate(-96.96 -77.181)" fill="#fff"/>
  </g>
</svg>
