<svg xmlns="http://www.w3.org/2000/svg" width="60" height="59.883" viewBox="0 0 60 59.883">
  <path id="icon-change-data" d="M60,30.383V30.5a29.9,29.9,0,0,1-4.711,16.029A2.344,2.344,0,1,1,51.339,44,25.235,25.235,0,1,0,8.474,17.367l5.357.008a2.344,2.344,0,0,1,0,4.688h0l-6.857-.011a6.866,6.866,0,0,1-4.914-2.017A7.019,7.019,0,0,1,0,15V8.234a2.344,2.344,0,1,1,4.687,0v6.34A30,30,0,0,1,30.116.5,29.9,29.9,0,0,1,60,30.383ZM44.594,51.149A25.154,25.154,0,0,1,30.116,55.7l-.059,0L30,55.7c-.356,0-.717-.008-1.075-.022a2.344,2.344,0,1,0-.194,4.683c.422.017.849.027,1.269.027l.059,0,.059,0a29.819,29.819,0,0,0,17.162-5.391,2.344,2.344,0,1,0-2.685-3.843Zm-33.179-3.58a2.344,2.344,0,1,0-3.441,3.183c.528.571,1.086,1.129,1.658,1.658a2.344,2.344,0,0,0,3.184-3.441c-.483-.447-.954-.918-1.4-1.4ZM6.261,39.193a2.344,2.344,0,0,0-4.395,1.631c.271.73.574,1.458.9,2.165a2.344,2.344,0,1,0,4.253-1.972c-.276-.6-.532-1.209-.76-1.825ZM21.193,54.122c-.616-.228-1.23-.485-1.826-.761a2.344,2.344,0,0,0-1.972,4.253c.707.328,1.436.632,2.168.9a2.344,2.344,0,1,0,1.631-4.395ZM2.465,33.9a2.343,2.343,0,0,0,2.244-2.439c-.015-.356-.022-.717-.022-1.074a2.344,2.344,0,1,0-4.687,0c0,.422.009.849.027,1.269A2.343,2.343,0,0,0,2.365,33.9l.1,0Zm18.573-2.2A14.106,14.106,0,0,1,23.41,30.14a8.906,8.906,0,1,1,13.413,0,14.067,14.067,0,0,1,7.262,9.547,4.338,4.338,0,0,1-4.257,5.227H20.4a4.339,4.339,0,0,1-4.257-5.227A14.081,14.081,0,0,1,21.038,31.7Zm4.86-7.408a4.219,4.219,0,1,0,4.219-4.219A4.223,4.223,0,0,0,25.9,24.289ZM20.835,40.226H39.4A9.515,9.515,0,0,0,30.2,33.2h-.159a9.515,9.515,0,0,0-9.2,7.031Zm0,0" transform="translate(0.001 -0.5)" fill="#fff"/>
</svg>
