<svg xmlns="http://www.w3.org/2000/svg" width="65" height="56.846" viewBox="0 0 65 56.846">
  <g id="icon-training" transform="translate(0.001 0)">
    <path id="路径_3390" data-name="路径 3390" d="M59.016,0H30.46a5.991,5.991,0,0,0-5.984,5.984V24.3l-5.3-2.637c-.179-.089-.361-.174-.545-.253a9.042,9.042,0,1,0-12.476.553A12.052,12.052,0,0,0,0,32.5v6.119a5.994,5.994,0,0,0,4.079,5.673V54.937a1.9,1.9,0,0,0,1.9,1.9H18.221a1.9,1.9,0,0,0,1.9-1.9v-21.4l6.1,3.048A5.224,5.224,0,0,0,33.151,34.4h6.828l-7.23,19.881a1.9,1.9,0,0,0,3.579,1.3l7.7-21.183h1.335l7.782,21.189a1.9,1.9,0,0,0,3.575-1.313L49.424,34.4h9.592A5.984,5.984,0,0,0,65,28.42V5.983A5.983,5.983,0,0,0,59.016,0ZM6.868,15.162A5.235,5.235,0,1,1,12.1,20.4,5.24,5.24,0,0,1,6.868,15.162ZM29.9,32.368c0,.014-.01.028-.014.043a1.408,1.408,0,0,1-1.957.772c-3.621-1.812-8.853-4.426-8.853-4.426a1.905,1.905,0,0,0-2.755,1.7V53.033H7.887V42.7a1.9,1.9,0,0,0-1.9-1.9,2.177,2.177,0,0,1-2.175-2.175V32.5A8.3,8.3,0,0,1,12.1,24.206h1.683a8.3,8.3,0,0,1,3.691.868s9.446,4.7,11.851,5.9a1.142,1.142,0,0,1,.57,1.4ZM61.191,28.42a2.16,2.16,0,0,1-.636,1.538,2.189,2.189,0,0,1-1.539.637H33.565c0-.01-.006-.021-.009-.031l4.726-9.452a1.9,1.9,0,1,0-3.406-1.7l-4.031,8.061L28.285,26.2V5.983A2.177,2.177,0,0,1,30.46,3.808H59.016a2.188,2.188,0,0,1,1.539.638,2.158,2.158,0,0,1,.636,1.537Zm0,0" fill="#fff"/>
    <path id="路径_3391" data-name="路径 3391" d="M279.368,64.266h-20.4a1.9,1.9,0,0,0,0,3.809h20.4a1.9,1.9,0,0,0,0-3.809Zm0,0" transform="translate(-224.431 -56.107)" fill="#fff"/>
    <path id="路径_3392" data-name="路径 3392" d="M349.5,120.5H339.3a1.9,1.9,0,0,0,0,3.809h10.2a1.9,1.9,0,0,0,0-3.809Zm0,0" transform="translate(-294.565 -105.202)" fill="#fff"/>
    <path id="路径_3393" data-name="路径 3393" d="M349.5,176.734H339.3a1.9,1.9,0,0,0,0,3.809h10.2a1.9,1.9,0,0,0,0-3.809Zm0,0" transform="translate(-294.565 -154.297)" fill="#fff"/>
  </g>
</svg>
