<svg xmlns="http://www.w3.org/2000/svg" width="60" height="47.733" viewBox="0 0 60 47.733">
  <g id="icon-case-list" transform="translate(-835.98 -251.631)">
    <path id="路径_482" data-name="路径 482" d="M835.98,264.907h13.276V251.631H835.98Zm3.516-9.76h6.246v6.243H839.5Z" transform="translate(0)" fill="#fff"/>
    <path id="路径_483" data-name="路径 483" d="M849.623,251.631v13.276h42.506V251.631Zm38.989,9.759H853.14v-6.243h35.472Z" transform="translate(3.851)" fill="#fff"/>
    <path id="路径_484" data-name="路径 484" d="M835.98,278.345h13.276V265.066H835.98Zm3.516-9.763h6.246v6.247H839.5Z" transform="translate(0 3.792)" fill="#fff"/>
    <path id="路径_485" data-name="路径 485" d="M849.623,278.345h42.506V265.066H849.623Zm3.517-9.763h35.472v6.247H853.14Z" transform="translate(3.851 3.792)" fill="#fff"/>
    <path id="路径_486" data-name="路径 486" d="M835.98,291.779h13.276V278.5H835.98Zm3.516-9.762h6.246v6.246H839.5Z" transform="translate(0 7.584)" fill="#fff"/>
    <path id="路径_487" data-name="路径 487" d="M849.623,291.779h42.506V278.5H849.623Zm3.517-9.762h35.472v6.246H853.14Z" transform="translate(3.851 7.584)" fill="#fff"/>
  </g>
</svg>
