<svg xmlns="http://www.w3.org/2000/svg" width="60" height="60" viewBox="0 0 60 60">
  <g id="icon-group" transform="translate(-452 -482)">
    <path id="路径_3389" data-name="路径 3389" d="M59.313,55.359a12.593,12.593,0,0,0-6.036-10.783l-.528-.325.482-.39A10.472,10.472,0,0,0,43.247,25.81L43,25.894l-.192-.171a16.776,16.776,0,0,0-4.084-2.688l-.606-.282.5-.444a10.475,10.475,0,1,0-13.9-.012l.5.445-.607.281a16.784,16.784,0,0,0-4.107,2.7l-.192.171-.243-.083A10.528,10.528,0,0,0,9.993,43.92l.472.387-.517.325A12.606,12.606,0,0,0,4,55.359v1.9A1.746,1.746,0,0,0,5.744,59H57.569a1.746,1.746,0,0,0,1.744-1.743ZM46.655,28.727a6.987,6.987,0,1,1-6.987,6.987A7,7,0,0,1,46.655,28.727ZM24.689,14.475a6.987,6.987,0,1,1,6.987,6.987A7,7,0,0,1,24.689,14.475ZM9.613,35.771a7.044,7.044,0,1,1,8.109,6.963l-.049.008-.05,0a12.9,12.9,0,0,0-1.932,0l-.05,0-.049-.008A7.088,7.088,0,0,1,9.613,35.771ZM7.478,55.513l.015-.453a9.182,9.182,0,0,1,8.075-8.8l.046-.006.047,0c.337.032.672.048,1,.048s.66-.016,1-.048l.047,0,.046.006a9.183,9.183,0,0,1,8.075,8.8l.015.453Zm26.514,0H29.321l-.009-.43a12.637,12.637,0,0,0-5.945-10.452l-.517-.324.472-.387a10.516,10.516,0,0,0,.554-15.809l-.386-.364.43-.311a13.27,13.27,0,0,1,15.486.009l.428.31-.383.364a10.459,10.459,0,0,0,.629,15.743l.482.39-.528.325A12.623,12.623,0,0,0,34,55.083Zm3.483,0,.015-.453a9.17,9.17,0,0,1,18.33,0l.014.453Z" transform="translate(450 481)" fill="#fff"/>
    <rect id="矩形_217" data-name="矩形 217" width="60" height="60" transform="translate(452 482)" fill="none"/>
  </g>
</svg>
