<svg xmlns="http://www.w3.org/2000/svg" width="60" height="57.144" viewBox="0 0 60 57.144">
  <g id="icon-case-apply" transform="translate(-619.148 -53.387)">
    <g id="组_517" data-name="组 517" transform="translate(630.621 86.38)">
      <g id="组_516" data-name="组 516">
        <g id="组_515" data-name="组 515">
          <path id="路径_478" data-name="路径 478" d="M643.592,86.747a1.675,1.675,0,0,0-2.365,0l-5.534,5.533-2.273-2.2a1.674,1.674,0,1,0-2.33,2.4l3.459,3.348a1.675,1.675,0,0,0,2.349-.02l6.695-6.7A1.673,1.673,0,0,0,643.592,86.747Z" transform="translate(-630.579 -86.258)" fill="#fff"/>
        </g>
      </g>
    </g>
    <g id="组_520" data-name="组 520" transform="translate(630.621 76.335)">
      <g id="组_519" data-name="组 519">
        <g id="组_518" data-name="组 518">
          <path id="路径_479" data-name="路径 479" d="M643.592,76.74a1.673,1.673,0,0,0-2.365,0l-5.534,5.533-2.273-2.206a1.676,1.676,0,0,0-2.33,2.409l3.459,3.348a1.676,1.676,0,0,0,2.349-.019l6.695-6.7A1.673,1.673,0,0,0,643.592,76.74Z" transform="translate(-630.579 -76.25)" fill="#fff"/>
        </g>
      </g>
    </g>
    <g id="组_523" data-name="组 523" transform="translate(630.621 66.29)">
      <g id="组_522" data-name="组 522">
        <g id="组_521" data-name="组 521">
          <path id="路径_480" data-name="路径 480" d="M643.592,66.732a1.673,1.673,0,0,0-2.365,0l-5.534,5.53-2.273-2.2a1.674,1.674,0,1,0-2.33,2.406l3.459,3.349A1.674,1.674,0,0,0,636.9,75.8l6.695-6.7A1.673,1.673,0,0,0,643.592,66.732Z" transform="translate(-630.579 -66.243)" fill="#fff"/>
        </g>
      </g>
    </g>
    <g id="组_526" data-name="组 526" transform="translate(619.148 53.387)">
      <g id="组_525" data-name="组 525">
        <g id="组_524" data-name="组 524">
          <path id="路径_481" data-name="路径 481" d="M677.68,70.841l-2.369-2.366a5.014,5.014,0,0,0-7.1,0l-2.456,2.45v-5.6a1.682,1.682,0,0,0-.476-1.17L655.235,53.891a1.692,1.692,0,0,0-1.2-.5H624.169a1.674,1.674,0,0,0-1.674,1.674v45.427h-1.674a1.674,1.674,0,0,0-1.673,1.673v3.347a5.028,5.028,0,0,0,5.021,5.023h36.564a5.026,5.026,0,0,0,5.022-5.023V89.867c.47-.47,11.373-11.368,11.925-11.921A5.032,5.032,0,0,0,677.68,70.841ZM655.709,59.166l4.392,4.488h-4.392Zm-31.539,48.017a1.674,1.674,0,0,1-1.674-1.675v-1.674h33.214v1.674a5,5,0,0,0,.289,1.675Zm38.238-1.675h0a1.674,1.674,0,1,1-3.347,0v-3.347a1.673,1.673,0,0,0-1.675-1.673h-31.54V56.735h26.518v8.594A1.674,1.674,0,0,0,654.036,67h8.372v7.271L651.634,85.049a1.75,1.75,0,0,0-.446.807l-2.129,9.233a1.672,1.672,0,0,0,2.005,2.006l9.234-2.127a1.72,1.72,0,0,0,.8-.451l1.3-1.3Zm-8.637-15.955,2.831,2.828-3.68.849Zm6.152,1.413-4.737-4.734,11.839-11.839,4.734,4.734Zm15.389-15.389-1.185,1.184-4.731-4.736,1.181-1.184a1.673,1.673,0,0,1,2.368,0l2.368,2.369A1.673,1.673,0,0,1,675.311,75.578Z" transform="translate(-619.148 -53.387)" fill="#fff"/>
        </g>
      </g>
    </g>
  </g>
</svg>
